<svg width="141" height="161" viewBox="0 0 141 161" fill="none" xmlns="http://www.w3.org/2000/svg">
<path d="M67.5884 0.882511C67.4729 1.03567 66.6644 3.6011 65.7788 6.54943C62.3905 17.8067 57.7701 29.6 53.2652 38.4833C41.9452 60.9595 25.1963 78.6112 2.90285 91.5532C1.47823 92.3956 0.361633 93.2763 0.400136 93.506C0.477143 93.7741 8.1393 108.975 17.4571 127.316L34.3986 160.628L35.6307 160.667C36.7473 160.667 37.1323 160.322 39.712 156.914C54.8053 137.08 63.8151 115.714 68.089 89.8302C68.5125 87.1882 68.859 84.9291 68.859 84.7376C68.859 84.5845 69.5136 84.4696 70.3607 84.4696H71.8238L72.0933 86.4607C72.2473 87.5711 72.7864 90.8257 73.3254 93.6592C77.6378 117.054 86.5321 137.654 100.162 155.766C103.397 160.092 103.82 160.475 105.052 160.59L106.4 160.667L123.341 127.316C132.659 109.013 140.321 93.7741 140.398 93.5443C140.437 93.2763 139.32 92.3956 137.895 91.5532C127.23 85.3503 117.874 78.1134 109.48 69.4982C95.0413 54.68 85.2615 37.5643 76.9832 12.4844C75.3276 7.54497 73.826 2.87359 73.6335 2.14608L73.2484 0.805931L70.5147 0.691061C69.0131 0.614481 67.7039 0.729351 67.5884 0.882511Z" fill="white"/>
</svg>
