<svg width="223" height="30" viewBox="0 0 223 30" fill="none" xmlns="http://www.w3.org/2000/svg">
<path fill-rule="evenodd" clip-rule="evenodd" d="M28.9098 2.18863C29.6978 2.13636 29.9605 3.23409 29.9605 6.16136C29.9605 10.0295 29.9605 10.1341 31.6242 9.24545C32.5874 8.72273 34.8641 8.2 36.7905 8.04318C39.7676 7.78182 40.7308 7.99091 42.5697 9.08864C44.7587 10.3955 44.8463 10.7614 44.8463 15.8841C44.8463 19.3864 45.1966 21.4773 45.8971 21.8955C46.6851 22.3659 45.7219 22.5227 41.3438 22.5227H35.6522V16.9818C35.6522 12.4341 35.3895 11.2841 34.2511 10.8659C33.4631 10.5523 32.1496 10.5 31.3615 10.6568C30.0481 10.9704 29.873 11.7545 30.1356 16.7727L30.3983 22.5227H24.3565C19.5405 22.5227 18.4897 22.3659 19.2778 21.8955C20.7664 21.0068 20.7664 4.95909 19.2778 4.43637C18.4022 4.12273 25.9326 2.34545 28.9098 2.18863ZM205.087 6.10909V10.0818L208.064 8.98409C212.267 7.41591 216.733 7.52045 219.01 9.24545C220.586 10.4477 220.849 11.3886 220.849 15.9364C220.849 19.3864 221.199 21.4773 221.899 21.8955C222.687 22.3659 221.549 22.5227 216.471 22.5227C211.392 22.5227 210.254 22.3659 211.042 21.8955C211.742 21.4773 212.092 19.4909 212.092 16.4591C212.092 11.1795 211.217 10.1341 207.276 10.7091C205.175 11.0227 205.087 11.1795 205.087 15.4659C205.087 17.8705 205.438 20.4318 205.963 21.1636L206.839 22.5227H200.534C195.63 22.5227 194.492 22.3659 195.28 21.8955C196.769 21.0068 196.769 4.95909 195.28 4.43637C194.492 4.12273 201.41 2.44999 204.474 2.18863C204.825 2.13636 205.087 3.91363 205.087 6.10909ZM14.2867 7.88636C16.1255 7.88636 17.7017 8.09545 17.7017 8.40909C17.7017 8.67045 16.1255 8.93181 14.1991 8.93181H10.6966V13.4273C10.6966 18.7591 11.4846 19.9091 15.2499 19.9091C17.8768 19.9091 17.9643 19.9614 16.3882 20.9545C12.7981 23.3068 5.8806 23.3591 3.77907 21.0068C3.25369 20.4318 2.81588 17.5045 2.81588 14.4727C2.81588 9.08864 2.72831 8.93181 0.889477 8.93181C-0.686664 8.87954 -0.161268 8.56591 2.90345 7.625C5.09254 6.94546 7.63186 5.74319 8.59506 4.90682L10.2588 3.44318L10.5215 5.63863C10.7842 7.88636 10.7841 7.88636 14.2867 7.88636ZM132.147 8.93181C135.124 7.52045 140.553 7.52045 142.917 8.93181C144.406 9.82045 144.669 10.6568 144.669 15.2568C144.669 18.1318 145.106 20.9545 145.544 21.5295C146.42 22.4705 146.157 22.5227 140.816 22.5227H135.037L135.912 21.1636C136.438 20.4318 136.788 18.2364 136.788 16.3545C136.788 12.3295 135.212 10.3432 132.147 10.6045C130.308 10.7614 130.221 11.075 129.958 15.9364C129.783 19.2818 130.045 21.3204 130.746 21.7909C131.622 22.4182 130.746 22.5227 125.492 22.5227C119.538 22.5227 119.275 22.4705 120.151 21.5295C120.589 20.9545 121.026 18.4455 121.026 15.9886C121.026 13.5318 120.589 11.0227 120.151 10.4477C119.363 9.66364 119.538 9.45455 120.764 9.45455C121.639 9.45455 123.916 8.98409 125.842 8.46137L129.345 7.52045L129.608 8.775L129.87 9.97727L132.147 8.93181ZM59.7321 8.67045C59.7321 9.40227 59.9948 9.40227 62.359 8.67045C65.9491 7.57272 70.5024 7.67727 72.4288 8.93181C73.0674 9.35539 73.4472 9.60735 73.8595 9.68769C74.4649 9.80565 75.1402 9.55369 76.8069 8.93181C80.9224 7.4159 85.4757 7.57273 87.6648 9.24545C89.2409 10.4477 89.5036 11.3886 89.5036 15.9364C89.5036 19.3864 89.8539 21.4773 90.5544 21.8955C91.3425 22.3659 90.2041 22.5227 85.213 22.5227C79.7841 22.5227 78.9085 22.4182 79.7841 21.7909C80.4846 21.3204 80.7473 19.3341 80.5722 16.25C80.3095 11.1795 79.2587 9.92499 76.0189 10.6568C74.8805 10.9182 74.6179 11.8591 74.6179 16.1455C74.6179 19.4386 74.9681 21.4773 75.6686 21.8955C76.4567 22.3659 75.3184 22.5227 70.2397 22.5227C65.161 22.5227 64.0227 22.3659 64.8108 21.8955C65.5113 21.4773 65.8615 19.4909 65.8615 16.4591C65.8615 11.4409 64.9859 10.2386 61.746 10.6045C60.345 10.7614 60.1699 11.3886 60.1699 16.6682V22.5227H54.128C49.312 22.5227 48.2613 22.3659 49.0493 21.8955C50.4504 21.0591 50.5379 10.7091 49.0493 10.1864C48.524 9.97727 50.1001 9.40227 52.8146 8.87954C58.8564 7.72954 59.7321 7.72954 59.7321 8.67045ZM112.358 8.87954C114.284 9.76818 114.459 10.3955 114.722 14.8909C115.072 19.3864 115.247 19.9091 116.736 19.9091C119.1 19.9091 117.874 21.3205 114.722 22.3136C111.57 23.3068 108.33 22.9409 107.016 21.425L106.053 20.3795L104.565 21.4773C100.624 24.3 93.444 22.7841 93.6191 19.1773C93.7067 16.6159 95.8082 15.3614 101.5 14.3682C105.703 13.6364 106.141 13.4273 106.141 12.0682C106.141 10.6568 104.214 8.93181 102.726 8.93181C101.762 8.93181 99.5734 10.5 98.0848 12.225L96.8589 13.6364L94.0569 9.87272L97.647 8.87954C102.551 7.57273 109.643 7.57273 112.358 8.87954ZM157.453 8.775C156.927 9.55909 160.342 16.25 161.306 16.25C161.568 16.25 162.707 14.8386 163.845 13.0614C165.334 10.7091 165.596 9.7159 164.896 9.29772C163.144 8.25227 163.845 7.88636 167.61 7.88636C170.938 7.88636 171.113 7.93863 169.799 8.775C168.048 10.0295 161.13 19.2818 158.066 24.6136L155.614 28.7955H151.061C148.521 28.7955 146.42 28.6386 146.42 28.3773C146.42 28.1682 148.784 26.7045 151.761 25.1364L157.015 22.2614L152.199 16.0409C149.572 12.6432 147.033 9.61136 146.507 9.29772C144.581 8.14772 145.632 7.88636 151.761 7.88636C157.19 7.88636 157.891 7.99091 157.453 8.775ZM186.962 8.46137C189.939 9.40228 190.202 9.925 190.202 14.4205C190.202 18.9159 190.99 20.2227 193.179 19.7523C195.455 19.2295 194.755 20.2227 191.865 21.6864C188.538 23.4114 186.261 23.4114 183.722 21.7386C181.708 20.4318 181.62 20.4318 180.482 21.4773C179.781 22.0523 178.03 22.6795 176.454 22.8364C174.177 23.0977 173.214 22.8886 171.463 21.8432C166.91 19.125 169.712 15.7795 177.592 14.3682C181.533 13.6886 182.321 13.375 182.321 12.3295C182.321 11.7023 181.62 10.6045 180.657 9.92499C179.256 8.87954 178.818 8.775 177.505 9.45455C176.717 9.82046 175.316 11.0227 174.44 12.0159L172.864 13.8977L171.551 12.0682C170.85 11.075 170.5 10.0295 170.762 9.82046C172.251 8.14773 183.196 7.31137 186.962 8.46137ZM103.864 15.2045C101.675 15.7273 100.887 17.1386 101.85 18.7591C102.638 20.0659 105.09 20.3273 105.79 19.1773C106.053 18.7591 106.141 17.6091 105.966 16.6159C105.703 15.0477 105.528 14.8386 103.864 15.2045ZM178.38 19.3864C176.542 18.4977 176.717 16.9818 178.818 15.7273C181.445 14.1591 182.321 14.4727 182.321 17.0341C182.321 19.5955 180.745 20.5364 178.38 19.3864Z" fill="#010101"/>
</svg>
